<svg width="121" height="73" viewBox="0 0 121 73" fill="none" xmlns="http://www.w3.org/2000/svg">
<g clip-path="url(#clip0_1246_12)">
<path fill-rule="evenodd" clip-rule="evenodd" d="M48.8492 33.2759C49.7036 34.1314 50.1835 35.291 50.1835 36.5001C50.1835 37.7091 49.7036 38.8688 48.8492 39.7242L31.6455 56.934C30.7896 57.7895 29.6289 58.2699 28.4187 58.2697C27.2086 58.2694 26.0481 57.7884 25.1926 56.9325C24.3371 56.0765 23.8566 54.9158 23.8569 53.7057C23.8572 52.4955 24.3382 51.3351 25.1941 50.4796L39.1736 36.5001L25.1941 22.5206C24.3626 21.6605 23.9022 20.5082 23.912 19.3119C23.9219 18.1156 24.4011 16.971 25.2467 16.1247C26.0922 15.2784 27.2363 14.798 28.4326 14.7871C29.6289 14.7761 30.7816 15.2354 31.6425 16.0661L48.8492 33.2759Z" fill="#FF772C"/>
<path fill-rule="evenodd" clip-rule="evenodd" d="M72.8492 33.2759C73.7036 34.1314 74.1835 35.291 74.1835 36.5001C74.1835 37.7091 73.7036 38.8688 72.8492 39.7242L55.6455 56.934C54.7896 57.7895 53.6289 58.2699 52.4187 58.2697C51.2086 58.2694 50.0481 57.7884 49.1926 56.9325C48.3371 56.0765 47.8566 54.9158 47.8569 53.7057C47.8572 52.4955 48.3382 51.3351 49.1941 50.4796L63.1736 36.5001L49.1941 22.5206C48.3626 21.6605 47.9022 20.5082 47.912 19.3119C47.9219 18.1156 48.4011 16.971 49.2467 16.1247C50.0922 15.2784 51.2363 14.798 52.4326 14.7871C53.6289 14.7761 54.7816 15.2354 55.6425 16.0661L72.8492 33.2759Z" fill="#FF772C"/>
<path fill-rule="evenodd" clip-rule="evenodd" d="M96.8492 33.2759C97.7036 34.1314 98.1835 35.291 98.1835 36.5001C98.1835 37.7091 97.7036 38.8688 96.8492 39.7242L79.6455 56.934C78.7896 57.7895 77.6289 58.2699 76.4187 58.2697C75.2086 58.2694 74.0481 57.7884 73.1926 56.9325C72.3371 56.0765 71.8566 54.9158 71.8569 53.7057C71.8572 52.4955 72.3382 51.3351 73.1941 50.4796L87.1736 36.5001L73.1941 22.5206C72.3626 21.6605 71.9022 20.5082 71.912 19.3119C71.9219 18.1156 72.4011 16.971 73.2467 16.1247C74.0922 15.2784 75.2363 14.798 76.4326 14.7871C77.6289 14.7761 78.7816 15.2354 79.6425 16.0661L96.8492 33.2759Z" fill="#FF772C"/>
</g>
<defs>
<clipPath id="clip0_1246_12">
<rect width="121" height="73" fill="white"/>
</clipPath>
</defs>
</svg>
